<svg width="30" height="30" viewBox="0 0 30 30" fill="none" xmlns="http://www.w3.org/2000/svg">
<circle cx="15" cy="15" r="15" fill="#F39329"/>
<path d="M8.66667 21.3333C8.20833 21.3333 7.81611 21.1703 7.49 20.8442C7.16389 20.5181 7.00056 20.1256 7 19.6667V9.66667C7 9.20833 7.16333 8.81611 7.49 8.49C7.81667 8.16389 8.20889 8.00056 8.66667 8H22C22.4583 8 22.8508 8.16333 23.1775 8.49C23.5042 8.81667 23.6672 9.20889 23.6667 9.66667V19.6667C23.6667 20.125 23.5036 20.5175 23.1775 20.8442C22.8514 21.1708 22.4589 21.3339 22 21.3333H8.66667ZM15.3333 15.5L22 11.3333V9.66667L15.3333 13.8333L8.66667 9.66667V11.3333L15.3333 15.5Z" fill="white"/>
</svg>
