<svg width="40" height="39" viewBox="0 0 40 39" fill="none" xmlns="http://www.w3.org/2000/svg">
<circle cx="20" cy="19.5" r="19.5" fill="white"/>
<path d="M19.9999 18.85C19.1379 18.85 18.3113 18.5076 17.7018 17.8981C17.0923 17.2886 16.7499 16.462 16.7499 15.6C16.7499 14.738 17.0923 13.9114 17.7018 13.3019C18.3113 12.6924 19.1379 12.35 19.9999 12.35C20.8619 12.35 21.6885 12.6924 22.298 13.3019C22.9075 13.9114 23.2499 14.738 23.2499 15.6C23.2499 16.0268 23.1658 16.4494 23.0025 16.8437C22.8392 17.238 22.5998 17.5963 22.298 17.8981C21.9962 18.1999 21.6379 18.4393 21.2436 18.6026C20.8493 18.7659 20.4267 18.85 19.9999 18.85ZM19.9999 6.5C17.5864 6.5 15.2718 7.45875 13.5652 9.16533C11.8586 10.8719 10.8999 13.1865 10.8999 15.6C10.8999 22.425 19.9999 32.5 19.9999 32.5C19.9999 32.5 29.0999 22.425 29.0999 15.6C29.0999 13.1865 28.1412 10.8719 26.4346 9.16533C24.728 7.45875 22.4134 6.5 19.9999 6.5Z" fill="#F28813"/>
</svg>
