<svg width="30" height="30" viewBox="0 0 30 30" fill="none" xmlns="http://www.w3.org/2000/svg">
<circle cx="15" cy="15" r="15" fill="#F39329"/>
<path d="M7.81409 7.44652L6.99608 8.21391C6.59345 8.60019 6.29462 9.08167 6.12716 9.6139C5.9597 10.1461 5.92901 10.712 6.03793 11.2592C6.55709 13.935 8.53345 16.5371 11.967 19.0653C15.3953 21.5908 18.3901 22.6541 20.9515 22.2554C22.0364 22.0872 22.9501 21.3232 23.35 20.2524L23.7514 19.1772C24.1258 18.173 23.7327 17.0257 22.8319 16.4967L21.0264 15.4339C20.6527 15.2112 20.216 15.118 19.784 15.1689C19.3519 15.2198 18.9488 15.4119 18.6371 15.7154L16.92 17.3649C15.8298 17.1451 14.7971 16.7017 13.8869 16.0628C12.9402 15.407 12.2027 14.6306 11.6745 13.7334L12.6446 11.3318C12.8154 10.9101 12.8536 10.4464 12.7542 10.0025C12.6548 9.55854 12.4225 9.15541 12.0882 8.84679L10.5281 7.43221C10.1588 7.08921 9.67268 6.89984 9.16868 6.90266C8.66467 6.90548 8.17952 7.0994 7.81409 7.44652Z" fill="#FEFEFE"/>
</svg>
